<?xml version="1.0" encoding="UTF-8"?>
<!DOCTYPE svg PUBLIC "-//W3C//DTD SVG 1.1//EN" "http://www.w3.org/Graphics/SVG/1.1/DTD/svg11.dtd">
<svg xmlns="http://www.w3.org/2000/svg" version="1.1" width="225px" height="225px" style="shape-rendering:geometricPrecision; text-rendering:geometricPrecision; image-rendering:optimizeQuality; fill-rule:evenodd; clip-rule:evenodd" xmlns:xlink="http://www.w3.org/1999/xlink">
<g><path style="opacity:1" fill="#fcfcfc" d="M -0.5,-0.5 C 74.5,-0.5 149.5,-0.5 224.5,-0.5C 224.5,74.5 224.5,149.5 224.5,224.5C 149.5,224.5 74.5,224.5 -0.5,224.5C -0.5,149.5 -0.5,74.5 -0.5,-0.5 Z"/></g>
<g><path style="opacity:1" fill="#313131" d="M 152.5,12.5 C 148.5,11.8333 144.5,11.1667 140.5,10.5C 136.833,10.5 133.167,10.5 129.5,10.5C 129.5,10.1667 129.5,9.83333 129.5,9.5C 134.489,8.77836 139.489,8.6117 144.5,9C 147.599,9.38743 150.266,10.5541 152.5,12.5 Z"/></g>
<g><path style="opacity:1" fill="#b5b5b5" d="M 82.5,11.5 C 86.3904,12.9852 90.3904,14.4852 94.5,16C 94.9574,16.414 95.2907,16.914 95.5,17.5C 93.604,18.4656 91.604,18.7989 89.5,18.5C 90.6085,17.71 91.9419,17.21 93.5,17C 87.0513,14.5687 80.3846,13.9021 73.5,15C 70.8877,15.6395 68.5543,16.8062 66.5,18.5C 65.5,18 64.5,17.5 63.5,17C 69.0859,12.6386 75.4192,10.8053 82.5,11.5 Z"/></g>
<g><path style="opacity:1" fill="#f3f3f3" d="M 129.5,10.5 C 133.167,10.5 136.833,10.5 140.5,10.5C 143.567,11.6834 146.567,13.0167 149.5,14.5C 145.284,14.684 141.284,15.684 137.5,17.5C 133.943,16.3884 130.61,14.7217 127.5,12.5C 127.855,11.4777 128.522,10.811 129.5,10.5 Z"/></g>
<g><path style="opacity:1" fill="#c1c1c1" d="M 129.5,9.5 C 129.5,9.83333 129.5,10.1667 129.5,10.5C 128.522,10.811 127.855,11.4777 127.5,12.5C 130.61,14.7217 133.943,16.3884 137.5,17.5C 136.828,18.2674 135.995,18.9341 135,19.5C 131.207,16.024 126.707,14.3574 121.5,14.5C 116.49,14.6275 111.656,15.6275 107,17.5C 104.216,16.5269 101.716,15.1936 99.5,13.5C 101.144,13.2865 102.644,13.6198 104,14.5C 110.367,13.0078 116.867,12.1744 123.5,12C 125.287,10.6813 127.287,9.84798 129.5,9.5 Z"/></g>
<g><path style="opacity:1" fill="#707070" d="M 140.5,10.5 C 144.5,11.1667 148.5,11.8333 152.5,12.5C 153.167,12.5 153.833,12.5 154.5,12.5C 155.625,14.1288 156.959,15.6288 158.5,17C 157.906,17.4643 157.239,17.631 156.5,17.5C 154.574,15.7073 152.241,14.7073 149.5,14.5C 146.567,13.0167 143.567,11.6834 140.5,10.5 Z"/></g>
<g><path style="opacity:1" fill="#151514" d="M 82.5,11.5 C 88.3886,11.1262 94.0552,11.7929 99.5,13.5C 101.716,15.1936 104.216,16.5269 107,17.5C 111.656,15.6275 116.49,14.6275 121.5,14.5C 126.707,14.3574 131.207,16.024 135,19.5C 135.995,18.9341 136.828,18.2674 137.5,17.5C 141.284,15.684 145.284,14.684 149.5,14.5C 152.241,14.7073 154.574,15.7073 156.5,17.5C 153.432,17.5467 150.432,18.0467 147.5,19C 151.548,19.3042 155.548,19.8042 159.5,20.5C 159.611,21.1174 159.944,21.6174 160.5,22C 158.833,22.3333 157.167,22.6667 155.5,23C 155.167,24 154.833,25 154.5,26C 159.52,27.8396 163.854,30.673 167.5,34.5C 166.098,35.8425 166.431,36.6758 168.5,37C 167.833,37.3333 167.167,37.6667 166.5,38C 168.187,39.913 168.687,42.0797 168,44.5C 167,43.1667 166,41.8333 165,40.5C 165.079,42.8463 165.912,45.013 167.5,47C 164.988,48.8732 165.154,50.7065 168,52.5C 167.996,55.4196 168.163,58.2529 168.5,61C 174.373,65.8762 179.873,71.0429 185,76.5C 185.811,75.0403 186.645,74.707 187.5,75.5C 186.96,76.7481 186.293,77.9148 185.5,79C 186.167,79.3333 186.833,79.6667 187.5,80C 186.009,81.9102 184.509,83.0769 183,83.5C 180.781,79.7293 179.115,75.7293 178,71.5C 178.23,77.6259 180.397,82.9592 184.5,87.5C 185.6,88.6049 186.267,89.9382 186.5,91.5C 186.649,92.552 186.483,93.552 186,94.5C 183.626,92.461 181.626,90.1277 180,87.5C 179.735,89.1626 180.235,90.6626 181.5,92C 180.54,93.4194 179.707,94.9194 179,96.5C 176.425,93.681 174.092,90.681 172,87.5C 171.667,88.1667 171.333,88.8333 171,89.5C 168.849,83.6997 168.016,77.6997 168.5,71.5C 171.166,71.9342 172.333,70.9342 172,68.5C 169.597,71.3655 168.764,71.1988 169.5,68C 167.741,66.992 166.574,65.492 166,63.5C 165.982,65.7972 166.149,68.1305 166.5,70.5C 165.325,70.719 164.325,70.3857 163.5,69.5C 162.301,66.0561 160.634,62.8895 158.5,60C 159.981,59.0197 161.315,57.853 162.5,56.5C 163.396,57.5063 164.062,57.5063 164.5,56.5C 162.481,53.4621 161.314,50.1288 161,46.5C 158.108,43.729 155.442,40.729 153,37.5C 152.837,39.3867 153.671,40.8867 155.5,42C 145.502,42.6586 141.668,47.8253 144,57.5C 147.113,62.613 150.946,67.113 155.5,71C 154.289,72.1131 154.289,73.2798 155.5,74.5C 154.609,75.5896 153.609,75.5896 152.5,74.5C 152.213,75.2003 151.88,75.8669 151.5,76.5C 146.234,72.7383 141.4,68.405 137,63.5C 136.333,65.5 136.333,67.5 137,69.5C 138.852,72.7105 140.519,76.0439 142,79.5C 143.039,80.7101 144.206,81.7101 145.5,82.5C 146.5,83.8333 147.5,85.1667 148.5,86.5C 145.011,85.5231 142.177,83.5231 140,80.5C 136.648,75.7973 133.815,70.7973 131.5,65.5C 129.371,60.3411 127.538,55.0077 126,49.5C 124.089,52.2778 124.255,54.9444 126.5,57.5C 126.668,60.684 125.334,61.184 122.5,59C 125,58.1667 125.167,57 123,55.5C 122.667,56.1667 122.333,56.8333 122,57.5C 121.333,56.1667 120.667,54.8333 120,53.5C 120.385,56.5892 121.052,59.5892 122,62.5C 119.245,60.234 117.912,57.234 118,53.5C 117.614,64.0411 116.614,64.0411 115,53.5C 114.667,54.8333 114.333,56.1667 114,57.5C 113.173,56.3379 112.34,55.1712 111.5,54C 112.645,51.8014 112.645,49.6348 111.5,47.5C 110.749,48.376 110.249,49.376 110,50.5C 109.828,45.7982 109.328,41.1315 108.5,36.5C 106.156,38.1942 105.156,40.5275 105.5,43.5C 105.716,45.3839 106.383,47.0506 107.5,48.5C 106.726,49.7112 105.893,49.7112 105,48.5C 104.517,49.448 104.351,50.448 104.5,51.5C 106.167,51.5 107.833,51.5 109.5,51.5C 110.368,55.0882 111.702,58.5882 113.5,62C 113.257,62.9021 112.923,63.7354 112.5,64.5C 107.496,59.8376 103.996,54.1709 102,47.5C 101.749,50.5943 102.249,53.5943 103.5,56.5C 102.034,55.653 101.2,54.3197 101,52.5C 100.19,47.7426 100.524,43.0759 102,38.5C 102.654,39.6956 103.154,39.6956 103.5,38.5C 102.674,37.549 102.508,36.549 103,35.5C 104.32,33.3456 106.153,31.8456 108.5,31C 107.328,30.5814 106.328,29.9147 105.5,29C 106.5,26.6667 108.167,25 110.5,24C 108.833,23.3333 107.167,23.3333 105.5,24C 104.748,24.6708 104.414,25.5041 104.5,26.5C 101.939,28.3714 99.4392,30.3714 97,32.5C 96.5172,31.552 96.3505,30.552 96.5,29.5C 97.9774,27.193 99.9774,25.3597 102.5,24C 95.3416,22.5632 89.0083,24.0632 83.5,28.5C 80.4017,28.5875 80.0684,28.0875 82.5,27C 81.0745,25.2859 81.4078,23.9525 83.5,23C 82.5842,22.7216 81.9175,22.2216 81.5,21.5C 83.7496,20.8698 85.7496,19.8698 87.5,18.5C 88.1667,18.5 88.8333,18.5 89.5,18.5C 91.604,18.7989 93.604,18.4656 95.5,17.5C 95.2907,16.914 94.9574,16.414 94.5,16C 90.3904,14.4852 86.3904,12.9852 82.5,11.5 Z"/></g>
<g><path style="opacity:1" fill="#858585" d="M 63.5,26.5 C 62.6977,27.8847 62.0311,27.718 61.5,26C 60.6705,24.5349 60.5038,23.0349 61,21.5C 61.7568,23.3146 62.5902,24.9812 63.5,26.5 Z"/></g>
<g><path style="opacity:1" fill="#c5c5c5" d="M 87.5,18.5 C 85.7496,19.8698 83.7496,20.8698 81.5,21.5C 78.2794,22.7093 75.2794,24.376 72.5,26.5C 73.2624,26.9106 74.2624,27.0773 75.5,27C 72.7264,29.0638 70.8931,31.5638 70,34.5C 72.8333,31.6667 75.6667,28.8333 78.5,26C 79.1667,25.3333 79.8333,25.3333 80.5,26C 78.3714,28.4392 76.3714,30.9392 74.5,33.5C 71.8159,35.1933 69.1492,36.86 66.5,38.5C 68.1284,36.6258 68.4618,34.6258 67.5,32.5C 69.0862,30.3295 70.4196,27.9962 71.5,25.5C 69.0603,24.3678 67.0603,25.0345 65.5,27.5C 64.8165,27.1373 64.1499,26.8039 63.5,26.5C 70.8202,22.0599 78.8202,19.3932 87.5,18.5 Z"/></g>
<g><path style="opacity:1" fill="#313131" d="M 81.5,21.5 C 81.9175,22.2216 82.5842,22.7216 83.5,23C 81.4078,23.9525 81.0745,25.2859 82.5,27C 80.0684,28.0875 80.4017,28.5875 83.5,28.5C 80.819,30.6877 78.6523,33.3544 77,36.5C 75.955,35.6266 75.1217,34.6266 74.5,33.5C 76.3714,30.9392 78.3714,28.4392 80.5,26C 79.8333,25.3333 79.1667,25.3333 78.5,26C 75.6667,28.8333 72.8333,31.6667 70,34.5C 70.8931,31.5638 72.7264,29.0638 75.5,27C 74.2624,27.0773 73.2624,26.9106 72.5,26.5C 75.2794,24.376 78.2794,22.7093 81.5,21.5 Z"/></g>
<g><path style="opacity:1" fill="#6d6d6d" d="M 65.5,39.5 C 65.5774,40.7498 66.244,41.5831 67.5,42C 65.6909,44.2379 63.3576,45.4046 60.5,45.5C 61.7007,43.0905 63.3674,41.0905 65.5,39.5 Z"/></g>
<g><path style="opacity:1" fill="#bebebe" d="M 154.5,12.5 C 158.5,13.6556 161.5,16.1556 163.5,20C 176.262,23.0892 183.762,30.9225 186,43.5C 185.094,40.8792 184.594,41.0459 184.5,44C 185.808,50.1496 189.474,52.4829 195.5,51C 193.192,52.8665 190.525,53.8665 187.5,54C 190.358,58.2898 193.691,58.6231 197.5,55C 201.037,50.3664 201.871,50.5331 200,55.5C 198.442,57.3589 196.609,58.8589 194.5,60C 195.833,60.6667 195.833,61.3333 194.5,62C 195.549,62.4922 196.549,62.3256 197.5,61.5C 210.818,68.0887 210.151,69.0887 195.5,64.5C 196.544,66.8636 196.544,69.5302 195.5,72.5C 194.833,72.1667 194.167,71.8333 193.5,71.5C 193.327,68.8205 192.327,66.4872 190.5,64.5C 190.977,63.5224 191.643,62.6891 192.5,62C 192.272,61.6012 191.938,61.4346 191.5,61.5C 192.895,60.3523 192.728,59.3523 191,58.5C 189.951,59.5171 188.784,59.6838 187.5,59C 186.024,56.3568 184.024,54.1901 181.5,52.5C 180.911,49.3596 180.244,46.3596 179.5,43.5C 178.407,38.0995 175.741,33.7662 171.5,30.5C 169.167,28.5 166.833,26.5 164.5,24.5C 170.49,25.5812 175.324,28.5812 179,33.5C 178.107,30.5638 176.274,28.0638 173.5,26C 168.924,23.8765 164.257,22.0431 159.5,20.5C 155.548,19.8042 151.548,19.3042 147.5,19C 150.432,18.0467 153.432,17.5467 156.5,17.5C 157.239,17.631 157.906,17.4643 158.5,17C 156.959,15.6288 155.625,14.1288 154.5,12.5 Z"/></g>
<g><path style="opacity:1" fill="#313131" d="M 53.5,46.5 C 51.6208,47.3414 49.6208,47.6747 47.5,47.5C 47.5,47.1667 47.5,46.8333 47.5,46.5C 48.7883,42.7179 51.4549,40.5512 55.5,40C 56.6667,38.8333 57.8333,37.6667 59,36.5C 57.0973,39.6272 55.264,42.9606 53.5,46.5 Z"/></g>
<g><path style="opacity:1" fill="#3a3a3a" d="M 179.5,43.5 C 180.244,46.3596 180.911,49.3596 181.5,52.5C 184.024,54.1901 186.024,56.3568 187.5,59C 188.784,59.6838 189.951,59.5171 191,58.5C 192.728,59.3523 192.895,60.3523 191.5,61.5C 184.552,62.512 178.218,60.8454 172.5,56.5C 173.912,55.1936 175.579,54.3603 177.5,54C 176.313,52.9805 175.313,51.8139 174.5,50.5C 176.102,47.7631 176.936,44.7631 177,41.5C 177.249,42.624 177.749,43.624 178.5,44.5C 179.107,44.3764 179.44,44.0431 179.5,43.5 Z"/></g>
<g><path style="opacity:1" fill="#747273" d="M 61.5,49.5 C 54.079,47.9472 51.079,47.9472 52.5,49.5C 52.5,50.8333 52.5,52.1667 52.5,53.5C 54.5648,53.4828 56.5648,53.1495 58.5,52.5C 58.5,52.8333 58.5,53.1667 58.5,53.5C 60.2646,54.4614 62.2646,54.7947 64.5,54.5C 59.9787,55.6778 55.3121,55.6778 50.5,54.5C 49.0221,55.4475 48.0221,56.7809 47.5,58.5C 46.021,56.277 44.6877,53.9436 43.5,51.5C 43.0472,50.5416 42.3805,49.7083 41.5,49C 43.3867,48.8374 44.8867,49.6707 46,51.5C 46.21,49.9419 46.71,48.6085 47.5,47.5C 49.6208,47.6747 51.6208,47.3414 53.5,46.5C 55.3469,47.5729 57.3469,47.5729 59.5,46.5C 65.8539,46.9261 71.3539,44.5928 76,39.5C 75.2797,42.2652 73.6131,44.5985 71,46.5C 70.6667,46.1667 70.3333,45.8333 70,45.5C 67.6026,47.7823 64.7693,49.1156 61.5,49.5 Z"/></g>
<g><path style="opacity:1" fill="#d2d0d1" d="M 61.5,49.5 C 61.5,50.5 61.5,51.5 61.5,52.5C 60.5,52.5 59.5,52.5 58.5,52.5C 56.5648,53.1495 54.5648,53.4828 52.5,53.5C 52.5,52.1667 52.5,50.8333 52.5,49.5C 51.079,47.9472 54.079,47.9472 61.5,49.5 Z"/></g>
<g><path style="opacity:1" fill="#9f9e9d" d="M 64.5,54.5 C 62.2646,54.7947 60.2646,54.4614 58.5,53.5C 64.8702,53.4811 70.5368,51.4811 75.5,47.5C 75.8333,47.6667 76.1667,47.8333 76.5,48C 73.1971,51.4843 69.1971,53.651 64.5,54.5 Z"/></g>
<g><path style="opacity:1" fill="#f7f7f7" d="M 43.5,51.5 C 44.6877,53.9436 46.021,56.277 47.5,58.5C 47.0919,59.6431 46.4252,60.6431 45.5,61.5C 43.3172,63.0588 41.1505,63.7255 39,63.5C 38.3333,60.8333 38.3333,58.1667 39,55.5C 39.3333,57.5 39.6667,59.5 40,61.5C 40.3457,58.4245 41.0124,55.4245 42,52.5C 42.3826,51.944 42.8826,51.6107 43.5,51.5 Z"/></g>
<g><path style="opacity:1" fill="#1e1e1d" d="M 96.5,29.5 C 91.1223,35.7986 88.6223,43.1319 89,51.5C 89.3333,50.5 89.6667,49.5 90,48.5C 90.4978,50.5269 90.3311,52.5269 89.5,54.5C 89.7189,55.938 90.2189,57.2713 91,58.5C 92,58.8333 93,59.1667 94,59.5C 90.4061,51.0843 91.4061,43.0843 97,35.5C 99.8333,32.6667 102.667,29.8333 105.5,27C 105.272,26.6012 104.938,26.4346 104.5,26.5C 104.414,25.5041 104.748,24.6708 105.5,24C 107.167,23.3333 108.833,23.3333 110.5,24C 108.167,25 106.5,26.6667 105.5,29C 106.328,29.9147 107.328,30.5814 108.5,31C 106.153,31.8456 104.32,33.3456 103,35.5C 102.508,36.549 102.674,37.549 103.5,38.5C 103.154,39.6956 102.654,39.6956 102,38.5C 100.524,43.0759 100.19,47.7426 101,52.5C 101.2,54.3197 102.034,55.653 103.5,56.5C 105.934,59.1708 108.267,62.0042 110.5,65C 111.437,65.6917 112.103,65.525 112.5,64.5C 112.923,63.7354 113.257,62.9021 113.5,62C 111.702,58.5882 110.368,55.0882 109.5,51.5C 107.833,51.5 106.167,51.5 104.5,51.5C 104.351,50.448 104.517,49.448 105,48.5C 105.893,49.7112 106.726,49.7112 107.5,48.5C 106.383,47.0506 105.716,45.3839 105.5,43.5C 105.156,40.5275 106.156,38.1942 108.5,36.5C 109.328,41.1315 109.828,45.7982 110,50.5C 110.249,49.376 110.749,48.376 111.5,47.5C 112.645,49.6348 112.645,51.8014 111.5,54C 112.34,55.1712 113.173,56.3379 114,57.5C 114.333,56.1667 114.667,54.8333 115,53.5C 116.614,64.0411 117.614,64.0411 118,53.5C 117.912,57.234 119.245,60.234 122,62.5C 121.052,59.5892 120.385,56.5892 120,53.5C 120.667,54.8333 121.333,56.1667 122,57.5C 122.333,56.8333 122.667,56.1667 123,55.5C 125.167,57 125,58.1667 122.5,59C 125.334,61.184 126.668,60.684 126.5,57.5C 127.167,60.5 127.833,63.5 128.5,66.5C 128.563,71.2029 128.229,75.8696 127.5,80.5C 126.297,81.9425 125.797,83.6092 126,85.5C 128.651,82.924 131.818,81.5907 135.5,81.5C 136.873,81.3433 138.207,81.51 139.5,82C 140.451,82.7175 140.617,83.5509 140,84.5C 137.135,85.4241 134.302,86.4241 131.5,87.5C 129.307,88.6805 126.974,89.6805 124.5,90.5C 123.158,89.0977 122.324,89.4311 122,91.5C 121.283,90.9558 120.783,90.2891 120.5,89.5C 121.031,87.4559 122.198,85.7893 124,84.5C 125.225,79.9147 125.725,75.248 125.5,70.5C 124.325,70.281 123.325,70.6143 122.5,71.5C 120.992,76.2105 118.825,80.5438 116,84.5C 116.81,81.2613 117.643,77.9279 118.5,74.5C 119.598,73.3991 119.765,72.0657 119,70.5C 117.836,70.1654 116.503,70.1654 115,70.5C 113.935,73.5727 113.768,76.5727 114.5,79.5C 111.204,89.7675 113.538,98.2675 121.5,105C 122.094,105.464 122.761,105.631 123.5,105.5C 126.422,107.531 129.755,108.698 133.5,109C 131.527,109.495 129.527,109.662 127.5,109.5C 118.847,106.835 111.513,102.168 105.5,95.5C 103.952,91.4023 102.119,87.4023 100,83.5C 100.496,88.1765 101.329,92.8432 102.5,97.5C 100.32,95.1367 98.6532,92.47 97.5,89.5C 96.5003,85.5007 95.5003,81.5007 94.5,77.5C 93.0777,74.3082 91.911,70.9749 91,67.5C 89.8938,72.7695 89.2272,78.1028 89,83.5C 87.8177,76.2291 87.1511,68.8958 87,61.5C 84.9456,72.164 81.7789,82.4973 77.5,92.5C 76.609,91.8902 75.609,91.5569 74.5,91.5C 74.5,90.5 74.5,89.5 74.5,88.5C 74.5,85.5 74.5,82.5 74.5,79.5C 74.5429,76.0901 74.0429,72.7568 73,69.5C 71.6463,73.3628 71.1463,77.3628 71.5,81.5C 68.5825,85.6661 65.9159,89.9994 63.5,94.5C 64.0037,90.4934 64.1703,86.4934 64,82.5C 63.0797,85.1013 62.413,87.7679 62,90.5C 61.3923,88.8455 60.8923,87.1789 60.5,85.5C 61.0261,80.6691 61.8594,76.0024 63,71.5C 58.9827,77.8873 56.6494,84.8873 56,92.5C 54.7288,87.2461 54.2288,81.9127 54.5,76.5C 56.1028,72.1912 57.6028,67.8578 59,63.5C 56.2878,67.4725 54.4544,71.8058 53.5,76.5C 53.6655,80.5138 53.4988,84.5138 53,88.5C 52.6411,85.4557 51.9745,85.1224 51,87.5C 49.4597,85.0454 49.1264,82.3787 50,79.5C 50.3333,81.1667 50.6667,82.8333 51,84.5C 51.3333,80.8333 51.6667,77.1667 52,73.5C 52.5213,69.8521 53.5213,66.5187 55,63.5C 48.2377,71.8648 39.7377,74.3648 29.5,71C 27.1667,70 25.5,68.3333 24.5,66C 30.8679,66.9982 37.2013,66.6649 43.5,65C 47.4467,62.7202 51.1134,60.0535 54.5,57C 52.9336,56.3918 51.6002,55.5585 50.5,54.5C 55.3121,55.6778 59.9787,55.6778 64.5,54.5C 69.1971,53.651 73.1971,51.4843 76.5,48C 76.1667,47.8333 75.8333,47.6667 75.5,47.5C 70.5368,51.4811 64.8702,53.4811 58.5,53.5C 58.5,53.1667 58.5,52.8333 58.5,52.5C 59.5,52.5 60.5,52.5 61.5,52.5C 61.5,51.5 61.5,50.5 61.5,49.5C 64.7693,49.1156 67.6026,47.7823 70,45.5C 70.3333,45.8333 70.6667,46.1667 71,46.5C 73.6131,44.5985 75.2797,42.2652 76,39.5C 71.3539,44.5928 65.8539,46.9261 59.5,46.5C 60.1667,46.5 60.5,46.1667 60.5,45.5C 63.3576,45.4046 65.6909,44.2379 67.5,42C 66.244,41.5831 65.5774,40.7498 65.5,39.5C 65.5,38.8333 65.8333,38.5 66.5,38.5C 69.1492,36.86 71.8159,35.1933 74.5,33.5C 75.1217,34.6266 75.955,35.6266 77,36.5C 78.6523,33.3544 80.819,30.6877 83.5,28.5C 89.0083,24.0632 95.3416,22.5632 102.5,24C 99.9774,25.3597 97.9774,27.193 96.5,29.5 Z"/></g>
<g><path style="opacity:1" fill="#414140" d="M 104.5,26.5 C 104.938,26.4346 105.272,26.6012 105.5,27C 102.667,29.8333 99.8333,32.6667 97,35.5C 91.4061,43.0843 90.4061,51.0843 94,59.5C 93,59.1667 92,58.8333 91,58.5C 90.2189,57.2713 89.7189,55.938 89.5,54.5C 90.3311,52.5269 90.4978,50.5269 90,48.5C 89.6667,49.5 89.3333,50.5 89,51.5C 88.6223,43.1319 91.1223,35.7986 96.5,29.5C 96.3505,30.552 96.5172,31.552 97,32.5C 99.4392,30.3714 101.939,28.3714 104.5,26.5 Z"/></g>
<g><path style="opacity:1" fill="#7a7a78" d="M 131.5,65.5 C 130.883,65.3893 130.383,65.056 130,64.5C 129.722,65.4158 129.222,66.0825 128.5,66.5C 127.833,63.5 127.167,60.5 126.5,57.5C 124.255,54.9444 124.089,52.2778 126,49.5C 127.538,55.0077 129.371,60.3411 131.5,65.5 Z"/></g>
<g><path style="opacity:1" fill="#575755" d="M 112.5,64.5 C 112.103,65.525 111.437,65.6917 110.5,65C 108.267,62.0042 105.934,59.1708 103.5,56.5C 102.249,53.5943 101.749,50.5943 102,47.5C 103.996,54.1709 107.496,59.8376 112.5,64.5 Z"/></g>
<g><path style="opacity:1" fill="#c3c3c3" d="M 47.5,46.5 C 47.5,46.8333 47.5,47.1667 47.5,47.5C 46.71,48.6085 46.21,49.9419 46,51.5C 44.8867,49.6707 43.3867,48.8374 41.5,49C 42.3805,49.7083 43.0472,50.5416 43.5,51.5C 42.8826,51.6107 42.3826,51.944 42,52.5C 41.0124,55.4245 40.3457,58.4245 40,61.5C 39.6667,59.5 39.3333,57.5 39,55.5C 38.3333,58.1667 38.3333,60.8333 39,63.5C 41.1505,63.7255 43.3172,63.0588 45.5,61.5C 46.4252,60.6431 47.0919,59.6431 47.5,58.5C 48.0221,56.7809 49.0221,55.4475 50.5,54.5C 51.6002,55.5585 52.9336,56.3918 54.5,57C 51.1134,60.0535 47.4467,62.7202 43.5,65C 37.2013,66.6649 30.8679,66.9982 24.5,66C 25.5,68.3333 27.1667,70 29.5,71C 39.7377,74.3648 48.2377,71.8648 55,63.5C 53.5213,66.5187 52.5213,69.8521 52,73.5C 51.6667,77.1667 51.3333,80.8333 51,84.5C 50.6667,82.8333 50.3333,81.1667 50,79.5C 49.1264,82.3787 49.4597,85.0454 51,87.5C 51.9745,85.1224 52.6411,85.4557 53,88.5C 53.4988,84.5138 53.6655,80.5138 53.5,76.5C 53.8333,76.5 54.1667,76.5 54.5,76.5C 54.2288,81.9127 54.7288,87.2461 56,92.5C 56.6494,84.8873 58.9827,77.8873 63,71.5C 61.8594,76.0024 61.0261,80.6691 60.5,85.5C 59.5655,86.5676 59.2322,87.901 59.5,89.5C 59.2,98.9323 55.5333,106.766 48.5,113C 47.8333,113.667 47.1667,113.667 46.5,113C 52.1769,108.81 55.0102,103.31 55,96.5C 53.9054,97.6934 53.072,99.0267 52.5,100.5C 51.8826,100.389 51.3826,100.056 51,99.5C 48.7503,105.303 44.917,109.636 39.5,112.5C 34.9764,112.076 30.9764,110.242 27.5,107C 32.3323,108.965 37.3323,108.965 42.5,107C 45.3739,105.398 46.3739,103.231 45.5,100.5C 46.0431,100.44 46.3764,100.107 46.5,99.5C 45.6279,97.5504 44.9612,95.5504 44.5,93.5C 45.1667,91.5 45.8333,89.5 46.5,87.5C 46.2114,90.6492 46.7114,93.6492 48,96.5C 49.6258,92.5668 49.6258,88.5668 48,84.5C 47.6174,85.056 47.1174,85.3893 46.5,85.5C 47.5158,80.8141 48.5158,76.1474 49.5,71.5C 43.0475,72.2874 39.7141,75.9541 39.5,82.5C 37.6599,86.554 37.1599,90.8874 38,95.5C 38.66,97.3237 39.8267,98.657 41.5,99.5C 42.7733,100.077 42.7733,100.743 41.5,101.5C 38.078,98.7104 37.4113,98.877 39.5,102C 38.8333,102.667 38.1667,102.667 37.5,102C 33.2833,94.9102 32.45,87.4102 35,79.5C 35.3333,81.5 35.6667,83.5 36,85.5C 37.6395,82.2577 38.6395,78.9243 39,75.5C 38.3333,76.1667 37.6667,76.8333 37,77.5C 30.9317,75.7994 25.5984,72.7994 21,68.5C 20.3162,67.2161 20.4829,66.0495 21.5,65C 19.6682,63.5114 18.8348,61.678 19,59.5C 23.6299,63.7665 29.1299,65.2665 35.5,64C 37.6621,61.4781 37.9955,58.6447 36.5,55.5C 35.7189,56.7287 35.2189,58.062 35,59.5C 34.3457,60.6956 33.8457,60.6956 33.5,59.5C 35.0791,56.3902 35.4125,53.2235 34.5,50C 36.1025,49.7101 37.6025,48.8767 39,47.5C 39.1953,45.7928 39.1953,44.1261 39,42.5C 40.588,45.3087 42.7546,45.9753 45.5,44.5C 46.6956,44.8457 46.6956,45.3457 45.5,46C 46.0944,46.4643 46.7611,46.631 47.5,46.5 Z"/></g>
<g><path style="opacity:1" fill="#7d7d7d" d="M 54.5,76.5 C 54.1667,76.5 53.8333,76.5 53.5,76.5C 54.4544,71.8058 56.2878,67.4725 59,63.5C 57.6028,67.8578 56.1028,72.1912 54.5,76.5 Z"/></g>
<g><path style="opacity:1" fill="#4c4c4c" d="M 118.5,74.5 C 118.565,74.0618 118.399,73.7284 118,73.5C 117.059,75.7274 115.892,77.7274 114.5,79.5C 113.768,76.5727 113.935,73.5727 115,70.5C 116.503,70.1654 117.836,70.1654 119,70.5C 119.765,72.0657 119.598,73.3991 118.5,74.5 Z"/></g>
<g><path style="opacity:1" fill="#686868" d="M 193.5,71.5 C 194.167,71.8333 194.833,72.1667 195.5,72.5C 196.234,73.7079 196.567,75.0413 196.5,76.5C 193.605,74.7977 191.772,72.4644 191,69.5C 191.708,70.3805 192.542,71.0472 193.5,71.5 Z"/></g>
<g><path style="opacity:1" fill="#646464" d="M 151.5,76.5 C 152.058,77.7899 153.058,78.6232 154.5,79C 152.607,80.9319 150.94,80.7652 149.5,78.5C 149.938,78.5654 150.272,78.3988 150.5,78C 147.081,76.4143 144.081,74.2476 141.5,71.5C 141.167,71.8333 140.833,72.1667 140.5,72.5C 141.5,74.8132 142.834,76.8132 144.5,78.5C 146.138,79.7046 146.471,81.0379 145.5,82.5C 144.206,81.7101 143.039,80.7101 142,79.5C 140.519,76.0439 138.852,72.7105 137,69.5C 136.333,67.5 136.333,65.5 137,63.5C 141.4,68.405 146.234,72.7383 151.5,76.5 Z"/></g>
<g><path style="opacity:1" fill="#bdbdbd" d="M 149.5,78.5 C 147.833,78.5 146.167,78.5 144.5,78.5C 142.834,76.8132 141.5,74.8132 140.5,72.5C 140.833,72.1667 141.167,71.8333 141.5,71.5C 144.081,74.2476 147.081,76.4143 150.5,78C 150.272,78.3988 149.938,78.5654 149.5,78.5 Z"/></g>
<g><path style="opacity:1" fill="#212120" d="M 159.5,20.5 C 164.257,22.0431 168.924,23.8765 173.5,26C 176.274,28.0638 178.107,30.5638 179,33.5C 175.324,28.5812 170.49,25.5812 164.5,24.5C 163.054,23.3871 161.387,23.2204 159.5,24C 160.5,24.3333 161.5,24.6667 162.5,25C 162.167,25.3333 161.833,25.6667 161.5,26C 164.256,28.7532 167.589,30.2532 171.5,30.5C 175.741,33.7662 178.407,38.0995 179.5,43.5C 179.44,44.0431 179.107,44.3764 178.5,44.5C 177.749,43.624 177.249,42.624 177,41.5C 176.936,44.7631 176.102,47.7631 174.5,50.5C 175.313,51.8139 176.313,52.9805 177.5,54C 175.579,54.3603 173.912,55.1936 172.5,56.5C 178.218,60.8454 184.552,62.512 191.5,61.5C 191.938,61.4346 192.272,61.6012 192.5,62C 191.643,62.6891 190.977,63.5224 190.5,64.5C 192.327,66.4872 193.327,68.8205 193.5,71.5C 192.542,71.0472 191.708,70.3805 191,69.5C 191.772,72.4644 193.605,74.7977 196.5,76.5C 197.5,79.1667 198.5,81.8333 199.5,84.5C 198.833,86.1667 198.167,87.8333 197.5,89.5C 196.461,83.8252 193.461,79.9919 188.5,78C 191.787,83.3665 193.12,89.1998 192.5,95.5C 191.206,94.7101 190.039,93.7101 189,92.5C 189.004,88.8248 187.671,85.8248 185,83.5C 184.51,84.7932 184.343,86.1266 184.5,87.5C 180.397,82.9592 178.23,77.6259 178,71.5C 179.115,75.7293 180.781,79.7293 183,83.5C 184.509,83.0769 186.009,81.9102 187.5,80C 186.833,79.6667 186.167,79.3333 185.5,79C 186.293,77.9148 186.96,76.7481 187.5,75.5C 186.645,74.707 185.811,75.0403 185,76.5C 179.873,71.0429 174.373,65.8762 168.5,61C 168.163,58.2529 167.996,55.4196 168,52.5C 165.154,50.7065 164.988,48.8732 167.5,47C 165.912,45.013 165.079,42.8463 165,40.5C 166,41.8333 167,43.1667 168,44.5C 168.687,42.0797 168.187,39.913 166.5,38C 167.167,37.6667 167.833,37.3333 168.5,37C 166.431,36.6758 166.098,35.8425 167.5,34.5C 163.854,30.673 159.52,27.8396 154.5,26C 154.833,25 155.167,24 155.5,23C 157.167,22.6667 158.833,22.3333 160.5,22C 159.944,21.6174 159.611,21.1174 159.5,20.5 Z"/></g>
<g><path style="opacity:1" fill="#696969" d="M 164.5,24.5 C 166.833,26.5 169.167,28.5 171.5,30.5C 167.589,30.2532 164.256,28.7532 161.5,26C 161.833,25.6667 162.167,25.3333 162.5,25C 161.5,24.6667 160.5,24.3333 159.5,24C 161.387,23.2204 163.054,23.3871 164.5,24.5 Z"/></g>
<g><path style="opacity:1" fill="#c0c0c0" d="M 200.5,85.5 C 199.833,85.5 199.5,85.1667 199.5,84.5C 198.5,81.8333 197.5,79.1667 196.5,76.5C 196.567,75.0413 196.234,73.7079 195.5,72.5C 196.222,72.0825 196.722,71.4158 197,70.5C 197.921,75.1845 199.421,79.6845 201.5,84C 201.43,84.7648 201.097,85.2648 200.5,85.5 Z"/></g>
<g><path style="opacity:1" fill="#9d9c9a" d="M 74.5,79.5 C 73.6829,81.9686 73.1829,84.6353 73,87.5C 72.2086,86.255 71.7086,84.9217 71.5,83.5C 71.5,82.8333 71.5,82.1667 71.5,81.5C 71.1463,77.3628 71.6463,73.3628 73,69.5C 74.0429,72.7568 74.5429,76.0901 74.5,79.5 Z"/></g>
<g><path style="opacity:1" fill="#979695" d="M 94.5,77.5 C 93.2227,78.6936 92.5561,80.3603 92.5,82.5C 92.8333,84.1667 93.1667,85.8333 93.5,87.5C 95.0046,84.8694 95.6713,85.2027 95.5,88.5C 92.4299,88.3677 89.4299,88.701 86.5,89.5C 87.13,82.3837 86.13,82.0504 83.5,88.5C 83.6236,89.1067 83.9569,89.44 84.5,89.5C 82.4809,90.9334 80.3143,92.2668 78,93.5C 77.6012,93.2716 77.4346,92.9382 77.5,92.5C 81.7789,82.4973 84.9456,72.164 87,61.5C 87.1511,68.8958 87.8177,76.2291 89,83.5C 89.2272,78.1028 89.8938,72.7695 91,67.5C 91.911,70.9749 93.0777,74.3082 94.5,77.5 Z"/></g>
<g><path style="opacity:1" fill="#c6c6c6" d="M 94.5,77.5 C 95.5003,81.5007 96.5003,85.5007 97.5,89.5C 97.5,90.1667 97.1667,90.5 96.5,90.5C 96.6716,89.5084 96.3382,88.8417 95.5,88.5C 95.6713,85.2027 95.0046,84.8694 93.5,87.5C 93.1667,85.8333 92.8333,84.1667 92.5,82.5C 92.5561,80.3603 93.2227,78.6936 94.5,77.5 Z"/></g>
<g><path style="opacity:1" fill="#f1f1f1" d="M 86.5,89.5 C 85.8333,89.5 85.1667,89.5 84.5,89.5C 83.9569,89.44 83.6236,89.1067 83.5,88.5C 86.13,82.0504 87.13,82.3837 86.5,89.5 Z"/></g>
<g><path style="opacity:1" fill="#838383" d="M 105.5,95.5 C 104.637,94.537 103.97,94.537 103.5,95.5C 104.127,96.4168 104.461,97.4168 104.5,98.5C 103.833,98.1667 103.167,97.8333 102.5,97.5C 101.329,92.8432 100.496,88.1765 100,83.5C 102.119,87.4023 103.952,91.4023 105.5,95.5 Z"/></g>
<g><path style="opacity:1" fill="#797978" d="M 63.5,94.5 C 62.0735,96.1484 61.2401,98.1484 61,100.5C 60.8227,96.6437 60.3227,92.977 59.5,89.5C 59.2322,87.901 59.5655,86.5676 60.5,85.5C 60.8923,87.1789 61.3923,88.8455 62,90.5C 62.413,87.7679 63.0797,85.1013 64,82.5C 64.1703,86.4934 64.0037,90.4934 63.5,94.5 Z"/></g>
<g><path style="opacity:1" fill="#bbbbbb" d="M 197.5,89.5 C 197.5,89.8333 197.5,90.1667 197.5,90.5C 196.686,92.631 196.186,94.9644 196,97.5C 195.171,86.8539 194.671,86.8539 194.5,97.5C 193.5,97.1667 192.833,96.5 192.5,95.5C 193.12,89.1998 191.787,83.3665 188.5,78C 193.461,79.9919 196.461,83.8252 197.5,89.5 Z"/></g>
<g><path style="opacity:1" fill="#707070" d="M 199.5,84.5 C 199.5,85.1667 199.833,85.5 200.5,85.5C 199.987,89.2293 199.154,92.896 198,96.5C 197.505,94.5273 197.338,92.5273 197.5,90.5C 197.5,90.1667 197.5,89.8333 197.5,89.5C 198.167,87.8333 198.833,86.1667 199.5,84.5 Z"/></g>
<g><path style="opacity:1" fill="#2c2c2c" d="M 46.5,87.5 C 46.5,86.8333 46.5,86.1667 46.5,85.5C 47.1174,85.3893 47.6174,85.056 48,84.5C 49.6258,88.5668 49.6258,92.5668 48,96.5C 46.7114,93.6492 46.2114,90.6492 46.5,87.5 Z"/></g>
<g><path style="opacity:1" fill="#909090" d="M 157.5,81.5 C 159.416,85.1629 160.416,89.1629 160.5,93.5C 159.596,92.791 159.263,91.791 159.5,90.5C 156.447,90.8893 153.78,90.2227 151.5,88.5C 153.735,88.7947 155.735,88.4614 157.5,87.5C 157.5,85.5 157.5,83.5 157.5,81.5 Z"/></g>
<g><path style="opacity:1" fill="#353535" d="M 39.5,82.5 C 39.123,88.3228 39.7897,93.9895 41.5,99.5C 39.8267,98.657 38.66,97.3237 38,95.5C 37.1599,90.8874 37.6599,86.554 39.5,82.5 Z"/></g>
<g><path style="opacity:1" fill="#565656" d="M 44.5,93.5 C 44.9612,95.5504 45.6279,97.5504 46.5,99.5C 46.3764,100.107 46.0431,100.44 45.5,100.5C 42.6132,94.8664 41.7799,88.8664 43,82.5C 43.3195,86.2142 43.8195,89.8809 44.5,93.5 Z"/></g>
<g><path style="opacity:1" fill="#818181" d="M 97.5,89.5 C 98.6532,92.47 100.32,95.1367 102.5,97.5C 102.975,99.7837 103.975,101.784 105.5,103.5C 104.209,103.737 103.209,103.404 102.5,102.5C 101.922,100.813 100.755,99.1459 99,97.5C 97.7163,98.5719 97.3829,99.9052 98,101.5C 93.0854,99.6238 88.252,97.6238 83.5,95.5C 87.9922,94.162 92.6589,92.9953 97.5,92C 96.944,91.6174 96.6107,91.1174 96.5,90.5C 97.1667,90.5 97.5,90.1667 97.5,89.5 Z"/></g>
<g><path style="opacity:1" fill="#5b5b5a" d="M 192.5,95.5 C 192.833,96.5 193.5,97.1667 194.5,97.5C 196.614,100.07 198.947,102.403 201.5,104.5C 200.883,104.611 200.383,104.944 200,105.5C 193.868,102.094 189.368,97.4277 186.5,91.5C 186.267,89.9382 185.6,88.6049 184.5,87.5C 184.343,86.1266 184.51,84.7932 185,83.5C 187.671,85.8248 189.004,88.8248 189,92.5C 190.039,93.7101 191.206,94.7101 192.5,95.5 Z"/></g>
<g><path style="opacity:1" fill="#aeadad" d="M 131.5,65.5 C 133.815,70.7973 136.648,75.7973 140,80.5C 142.177,83.5231 145.011,85.5231 148.5,86.5C 149.167,87.1667 149.833,87.8333 150.5,88.5C 149.761,88.369 149.094,88.5357 148.5,89C 151.014,90.7573 153.681,92.2573 156.5,93.5C 157.167,95.1667 157.833,96.8333 158.5,98.5C 155.872,100.488 153.205,102.488 150.5,104.5C 150.167,104.333 149.833,104.167 149.5,104C 151.607,102.736 152.607,100.903 152.5,98.5C 153.281,100.628 154.281,100.795 155.5,99C 147.213,89.5444 138.213,89.0444 128.5,97.5C 127.292,98.2341 125.959,98.5674 124.5,98.5C 124.702,100.95 124.369,103.283 123.5,105.5C 122.761,105.631 122.094,105.464 121.5,105C 113.538,98.2675 111.204,89.7675 114.5,79.5C 115.892,77.7274 117.059,75.7274 118,73.5C 118.399,73.7284 118.565,74.0618 118.5,74.5C 117.643,77.9279 116.81,81.2613 116,84.5C 118.825,80.5438 120.992,76.2105 122.5,71.5C 123.325,70.6143 124.325,70.281 125.5,70.5C 125.725,75.248 125.225,79.9147 124,84.5C 122.198,85.7893 121.031,87.4559 120.5,89.5C 119.596,90.209 119.263,91.209 119.5,92.5C 121.5,92.5 123.5,92.5 125.5,92.5C 125.259,95.999 126.092,96.3323 128,93.5C 128.333,94.1667 128.667,94.8333 129,95.5C 130.167,93 132,91.1667 134.5,90C 133.167,89.6667 131.833,89.3333 130.5,89C 131.056,88.6174 131.389,88.1174 131.5,87.5C 134.302,86.4241 137.135,85.4241 140,84.5C 140.617,83.5509 140.451,82.7175 139.5,82C 138.207,81.51 136.873,81.3433 135.5,81.5C 135.804,80.8501 136.137,80.1835 136.5,79.5C 134.808,77.6414 133.308,75.6414 132,73.5C 130.974,76.2387 129.474,78.572 127.5,80.5C 128.229,75.8696 128.563,71.2029 128.5,66.5C 129.222,66.0825 129.722,65.4158 130,64.5C 130.383,65.056 130.883,65.3893 131.5,65.5 Z"/></g>
<g><path style="opacity:1" fill="#6d6c6c" d="M 131.5,87.5 C 131.389,88.1174 131.056,88.6174 130.5,89C 131.833,89.3333 133.167,89.6667 134.5,90C 132,91.1667 130.167,93 129,95.5C 128.667,94.8333 128.333,94.1667 128,93.5C 126.092,96.3323 125.259,95.999 125.5,92.5C 123.5,92.5 121.5,92.5 119.5,92.5C 119.263,91.209 119.596,90.209 120.5,89.5C 120.783,90.2891 121.283,90.9558 122,91.5C 122.324,89.4311 123.158,89.0977 124.5,90.5C 126.974,89.6805 129.307,88.6805 131.5,87.5 Z"/></g>
<g><path style="opacity:1" fill="#d8d8d8" d="M 135.5,81.5 C 131.818,81.5907 128.651,82.924 126,85.5C 125.797,83.6092 126.297,81.9425 127.5,80.5C 129.474,78.572 130.974,76.2387 132,73.5C 133.308,75.6414 134.808,77.6414 136.5,79.5C 136.137,80.1835 135.804,80.8501 135.5,81.5 Z"/></g>
<g><path style="opacity:1" fill="#bfbfbf" d="M 83.5,95.5 C 88.252,97.6238 93.0854,99.6238 98,101.5C 97.3829,99.9052 97.7163,98.5719 99,97.5C 100.755,99.1459 101.922,100.813 102.5,102.5C 100.833,103.167 99.1667,103.833 97.5,104.5C 95.9897,103.164 94.3231,101.997 92.5,101C 88.152,100.585 83.8187,100.751 79.5,101.5C 79.2488,99.8297 78.5822,98.3297 77.5,97C 79.2495,95.6814 81.2495,95.1814 83.5,95.5 Z"/></g>
<g><path style="opacity:1" fill="#1f1f1f" d="M 152.5,98.5 C 151.129,96.1334 149.129,94.4667 146.5,93.5C 144.454,95.281 144.12,97.281 145.5,99.5C 143.844,100.761 142.178,102.094 140.5,103.5C 138.845,102.772 137.179,102.605 135.5,103C 137.808,104.867 140.475,105.867 143.5,106C 140.956,108.088 138.623,107.921 136.5,105.5C 133.55,103.089 132.883,100.089 134.5,96.5C 133.998,95.479 133.332,95.3123 132.5,96C 131.213,97.4095 130.046,98.9095 129,100.5C 128.517,99.552 128.351,98.552 128.5,97.5C 138.213,89.0444 147.213,89.5444 155.5,99C 154.281,100.795 153.281,100.628 152.5,98.5 Z"/></g>
<g><path style="opacity:1" fill="#4b4b49" d="M 167.5,93.5 C 168.123,98.2163 168.456,103.05 168.5,108C 167.387,111.321 166.054,114.487 164.5,117.5C 164.167,117.5 163.833,117.5 163.5,117.5C 163.954,115.259 163.954,113.259 163.5,111.5C 164.014,109.488 164.18,107.488 164,105.5C 157.196,112.696 155.863,111.696 160,102.5C 160.498,99.5184 160.665,96.5184 160.5,93.5C 161.222,93.0825 161.722,92.4158 162,91.5C 162.782,95.8406 164.116,98.5072 166,99.5C 167.128,97.6547 167.628,95.6547 167.5,93.5 Z"/></g>
<g><path style="opacity:1" fill="#343434" d="M 102.5,97.5 C 103.167,97.8333 103.833,98.1667 104.5,98.5C 105.526,101.372 107.192,103.872 109.5,106C 109.272,106.399 108.938,106.565 108.5,106.5C 107.167,105.833 106.167,104.833 105.5,103.5C 103.975,101.784 102.975,99.7837 102.5,97.5 Z"/></g>
<g><path style="opacity:1" fill="#292927" d="M 186.5,91.5 C 189.368,97.4277 193.868,102.094 200,105.5C 200.383,104.944 200.883,104.611 201.5,104.5C 203.117,105.038 204.784,105.371 206.5,105.5C 205.402,106.397 205.402,107.23 206.5,108C 205.833,108.167 205.167,108.333 204.5,108.5C 200.99,107.402 197.657,106.235 194.5,105C 196.213,106.378 197.547,108.045 198.5,110C 201.117,110.822 203.784,111.322 206.5,111.5C 207.873,111.343 209.207,111.51 210.5,112C 207.524,112.705 204.858,113.871 202.5,115.5C 201.081,116.451 199.415,116.784 197.5,116.5C 194.859,114.547 191.859,113.047 188.5,112C 185.991,108.79 183.158,105.957 180,103.5C 180.642,105.807 181.642,108.141 183,110.5C 184.281,110.381 185.448,110.881 186.5,112C 185.833,112.333 185.167,112.667 184.5,113C 186.3,114.812 187.967,116.645 189.5,118.5C 189.611,119.117 189.944,119.617 190.5,120C 188.981,119.669 187.648,119.836 186.5,120.5C 185.817,122.176 184.483,122.843 182.5,122.5C 182.88,120.302 182.213,118.635 180.5,117.5C 178.13,114.14 175.797,110.807 173.5,107.5C 171.544,111.2 169.877,115.033 168.5,119C 166.651,121.017 164.651,122.85 162.5,124.5C 163.455,122.254 164.122,119.921 164.5,117.5C 166.054,114.487 167.387,111.321 168.5,108C 168.456,103.05 168.123,98.2163 167.5,93.5C 167.628,95.6547 167.128,97.6547 166,99.5C 164.116,98.5072 162.782,95.8406 162,91.5C 161.722,92.4158 161.222,93.0825 160.5,93.5C 160.416,89.1629 159.416,85.1629 157.5,81.5C 154.022,81.1842 150.688,81.6842 147.5,83C 150.228,85.8645 153.562,87.3645 157.5,87.5C 155.735,88.4614 153.735,88.7947 151.5,88.5C 151.167,88.5 150.833,88.5 150.5,88.5C 149.833,87.8333 149.167,87.1667 148.5,86.5C 147.5,85.1667 146.5,83.8333 145.5,82.5C 146.471,81.0379 146.138,79.7046 144.5,78.5C 146.167,78.5 147.833,78.5 149.5,78.5C 150.94,80.7652 152.607,80.9319 154.5,79C 153.058,78.6232 152.058,77.7899 151.5,76.5C 151.88,75.8669 152.213,75.2003 152.5,74.5C 153.609,75.5896 154.609,75.5896 155.5,74.5C 154.289,73.2798 154.289,72.1131 155.5,71C 150.946,67.113 147.113,62.613 144,57.5C 141.668,47.8253 145.502,42.6586 155.5,42C 153.671,40.8867 152.837,39.3867 153,37.5C 155.442,40.729 158.108,43.729 161,46.5C 161.314,50.1288 162.481,53.4621 164.5,56.5C 164.062,57.5063 163.396,57.5063 162.5,56.5C 161.315,57.853 159.981,59.0197 158.5,60C 160.634,62.8895 162.301,66.0561 163.5,69.5C 164.325,70.3857 165.325,70.719 166.5,70.5C 166.149,68.1305 165.982,65.7972 166,63.5C 166.574,65.492 167.741,66.992 169.5,68C 168.764,71.1988 169.597,71.3655 172,68.5C 172.333,70.9342 171.166,71.9342 168.5,71.5C 168.016,77.6997 168.849,83.6997 171,89.5C 171.333,88.8333 171.667,88.1667 172,87.5C 174.092,90.681 176.425,93.681 179,96.5C 179.707,94.9194 180.54,93.4194 181.5,92C 180.235,90.6626 179.735,89.1626 180,87.5C 181.626,90.1277 183.626,92.461 186,94.5C 186.483,93.552 186.649,92.552 186.5,91.5 Z"/></g>
<g><path style="opacity:1" fill="#5d5d5b" d="M 167.5,93.5 C 166.313,90.1181 164.813,86.7847 163,83.5C 162.28,81.8876 162.446,80.3876 163.5,79C 160.361,75.9122 158.194,72.4122 157,68.5C 162.63,74.088 166.463,80.7546 168.5,88.5C 167.691,90.0709 167.357,91.7376 167.5,93.5 Z"/></g>
<g><path style="opacity:1" fill="#c9c9c9" d="M 157.5,81.5 C 157.5,83.5 157.5,85.5 157.5,87.5C 153.562,87.3645 150.228,85.8645 147.5,83C 150.688,81.6842 154.022,81.1842 157.5,81.5 Z"/></g>
<g><path style="opacity:1" fill="#565655" d="M 71.5,81.5 C 71.5,82.1667 71.5,82.8333 71.5,83.5C 68.2512,88.1707 65.9179,93.3373 64.5,99C 64.8919,100.011 65.5585,100.511 66.5,100.5C 65.3523,102.149 64.019,103.649 62.5,105C 64.0714,108.804 65.2381,112.638 66,116.5C 63.8061,113.446 62.1395,110.112 61,106.5C 60.2825,107.451 59.4491,107.617 58.5,107C 58.9817,105.992 59.1484,104.825 59,103.5C 60,103.167 61,102.833 62,102.5C 63.0793,99.9373 63.5793,97.2706 63.5,94.5C 65.9159,89.9994 68.5825,85.6661 71.5,81.5 Z"/></g>
<g><path style="opacity:1" fill="#fafafa" d="M 150.5,88.5 C 150.833,88.5 151.167,88.5 151.5,88.5C 153.78,90.2227 156.447,90.8893 159.5,90.5C 159.263,91.791 159.596,92.791 160.5,93.5C 160.665,96.5184 160.498,99.5184 160,102.5C 155.863,111.696 157.196,112.696 164,105.5C 164.18,107.488 164.014,109.488 163.5,111.5C 162.14,113.046 161.14,114.88 160.5,117C 161.473,117.349 162.306,118.182 163,119.5C 163.464,118.906 163.631,118.239 163.5,117.5C 163.833,117.5 164.167,117.5 164.5,117.5C 164.122,119.921 163.455,122.254 162.5,124.5C 161.833,124.5 161.5,124.833 161.5,125.5C 160.711,125.783 160.044,126.283 159.5,127C 161.311,129.22 162.644,131.72 163.5,134.5C 162.716,140.354 161.216,146.02 159,151.5C 152.024,160.154 145.857,168.487 140.5,176.5C 135.841,179.168 131.508,182.335 127.5,186C 123.94,187.237 120.273,187.737 116.5,187.5C 106.47,183.484 97.8033,177.484 90.5,169.5C 90.5,168.5 90.5,167.5 90.5,166.5C 89.448,166.649 88.448,166.483 87.5,166C 85.598,162.595 82.9313,160.095 79.5,158.5C 78.6006,155.605 77.2672,152.938 75.5,150.5C 72.3306,144.364 70.6639,138.031 70.5,131.5C 70.6667,130.5 70.8333,129.5 71,128.5C 72.7261,129.576 74.5594,129.743 76.5,129C 73.2877,128.234 70.621,126.734 68.5,124.5C 68.5,124.167 68.5,123.833 68.5,123.5C 68.4148,122.005 69.0815,121.005 70.5,120.5C 72.4325,121.52 74.4325,121.687 76.5,121C 74.7536,120.529 73.087,119.862 71.5,119C 72.1258,118.25 72.6258,117.416 73,116.5C 77.299,116.466 81.799,116.466 86.5,116.5C 93.0177,114.837 94.351,111.504 90.5,106.5C 91.7111,105.28 91.7111,104.113 90.5,103C 93.2723,103.052 95.6056,104.219 97.5,106.5C 98.463,106.03 98.463,105.363 97.5,104.5C 99.1667,103.833 100.833,103.167 102.5,102.5C 103.209,103.404 104.209,103.737 105.5,103.5C 106.167,104.833 107.167,105.833 108.5,106.5C 105.776,109.282 104.109,112.615 103.5,116.5C 109.16,117.69 114.827,117.69 120.5,116.5C 117.233,110.973 118.066,109.64 123,112.5C 124.94,112.043 126.44,111.043 127.5,109.5C 129.527,109.662 131.527,109.495 133.5,109C 129.755,108.698 126.422,107.531 123.5,105.5C 124.369,103.283 124.702,100.95 124.5,98.5C 125.959,98.5674 127.292,98.2341 128.5,97.5C 128.351,98.552 128.517,99.552 129,100.5C 130.046,98.9095 131.213,97.4095 132.5,96C 133.332,95.3123 133.998,95.479 134.5,96.5C 132.883,100.089 133.55,103.089 136.5,105.5C 135.638,108.017 136.805,109.017 140,108.5C 143.012,108.274 145.845,107.441 148.5,106C 148.05,103.467 147.05,101.3 145.5,99.5C 144.12,97.281 144.454,95.281 146.5,93.5C 149.129,94.4667 151.129,96.1334 152.5,98.5C 152.607,100.903 151.607,102.736 149.5,104C 149.833,104.167 150.167,104.333 150.5,104.5C 153.205,102.488 155.872,100.488 158.5,98.5C 157.833,96.8333 157.167,95.1667 156.5,93.5C 153.681,92.2573 151.014,90.7573 148.5,89C 149.094,88.5357 149.761,88.369 150.5,88.5 Z"/></g>
<g><path style="opacity:1" fill="#717171" d="M 145.5,99.5 C 147.05,101.3 148.05,103.467 148.5,106C 145.845,107.441 143.012,108.274 140,108.5C 136.805,109.017 135.638,108.017 136.5,105.5C 138.623,107.921 140.956,108.088 143.5,106C 140.475,105.867 137.808,104.867 135.5,103C 137.179,102.605 138.845,102.772 140.5,103.5C 142.178,102.094 143.844,100.761 145.5,99.5 Z"/></g>
<g><path style="opacity:1" fill="#2b2b2b" d="M 97.5,104.5 C 98.463,105.363 98.463,106.03 97.5,106.5C 95.6056,104.219 93.2723,103.052 90.5,103C 91.7111,104.113 91.7111,105.28 90.5,106.5C 94.351,111.504 93.0177,114.837 86.5,116.5C 84.9731,116.573 83.9731,115.906 83.5,114.5C 81.5891,114.426 80.4224,113.426 80,111.5C 79.991,108.631 79.8243,105.964 79.5,103.5C 79.5,102.833 79.5,102.167 79.5,101.5C 83.8187,100.751 88.152,100.585 92.5,101C 94.3231,101.997 95.9897,103.164 97.5,104.5 Z"/></g>
<g><path style="opacity:1" fill="#dedede" d="M 79.5,101.5 C 79.5,102.167 79.5,102.833 79.5,103.5C 79.8243,105.964 79.991,108.631 80,111.5C 80.4224,113.426 81.5891,114.426 83.5,114.5C 83.9731,115.906 84.9731,116.573 86.5,116.5C 81.799,116.466 77.299,116.466 73,116.5C 72.6258,117.416 72.1258,118.25 71.5,119C 73.087,119.862 74.7536,120.529 76.5,121C 74.4325,121.687 72.4325,121.52 70.5,120.5C 69.0815,121.005 68.4148,122.005 68.5,123.5C 67.661,122.359 66.9943,121.026 66.5,119.5C 67.7161,118.904 69.0494,118.737 70.5,119C 69.944,118.617 69.6107,118.117 69.5,117.5C 68.6233,111.007 69.9566,105.007 73.5,99.5C 73.3691,98.6236 73.7025,97.9569 74.5,97.5C 76.1856,98.8569 77.8523,100.19 79.5,101.5 Z"/></g>
<g><path style="opacity:1" fill="#272727" d="M 79.5,103.5 C 77.3438,105.802 75.6772,108.469 74.5,111.5C 75.3191,113.916 74.6524,114.082 72.5,112C 73.717,110.352 74.5503,108.519 75,106.5C 76.129,104.859 77.629,103.859 79.5,103.5 Z"/></g>
<g><path style="opacity:1" fill="#c0c0c0" d="M 206.5,111.5 C 203.784,111.322 201.117,110.822 198.5,110C 197.547,108.045 196.213,106.378 194.5,105C 197.657,106.235 200.99,107.402 204.5,108.5C 205.167,108.333 205.833,108.167 206.5,108C 205.402,107.23 205.402,106.397 206.5,105.5C 208.199,105.66 209.866,105.494 211.5,105C 213.359,103.308 215.359,101.808 217.5,100.5C 218.347,102.061 218.014,103.561 216.5,105C 212.469,107.455 208.136,109.121 203.5,110C 204.737,110.232 205.737,110.732 206.5,111.5 Z"/></g>
<g><path style="opacity:1" fill="#9d9d9d" d="M 27.5,112.5 C 26.7611,112.369 26.0944,112.536 25.5,113C 26.9125,116.246 28.9125,119.08 31.5,121.5C 25.5782,118.644 22.4115,113.978 22,107.5C 23.7297,109.402 25.563,111.069 27.5,112.5 Z"/></g>
<g><path style="opacity:1" fill="#b2b2b2" d="M 73.5,99.5 C 69.9566,105.007 68.6233,111.007 69.5,117.5C 68.7784,117.082 68.2784,116.416 68,115.5C 67.3333,111.167 67.3333,106.833 68,102.5C 69.4877,100.84 71.321,99.84 73.5,99.5 Z"/></g>
<g><path style="opacity:1" fill="#d4d3d3" d="M 105.5,95.5 C 111.513,102.168 118.847,106.835 127.5,109.5C 126.44,111.043 124.94,112.043 123,112.5C 118.066,109.64 117.233,110.973 120.5,116.5C 114.827,117.69 109.16,117.69 103.5,116.5C 104.109,112.615 105.776,109.282 108.5,106.5C 108.938,106.565 109.272,106.399 109.5,106C 107.192,103.872 105.526,101.372 104.5,98.5C 104.461,97.4168 104.127,96.4168 103.5,95.5C 103.97,94.537 104.637,94.537 105.5,95.5 Z"/></g>
<g><path style="opacity:1" fill="#757575" d="M 83.5,114.5 C 82.8592,113.518 82.1925,112.518 81.5,111.5C 81.8333,111.167 82.1667,110.833 82.5,110.5C 84.323,111.747 86.323,112.414 88.5,112.5C 88.281,111.325 88.6143,110.325 89.5,109.5C 90.7472,111.006 90.7472,112.506 89.5,114C 87.5273,114.495 85.5273,114.662 83.5,114.5 Z"/></g>
<g><path style="opacity:1" fill="#585858" d="M 52.5,100.5 C 50.1755,106.999 45.8422,111.832 39.5,115C 36.2617,116.368 32.9283,116.701 29.5,116C 31.5,115.667 33.5,115.333 35.5,115C 32.4776,114.902 29.8109,114.068 27.5,112.5C 31.5159,113.743 35.5159,113.743 39.5,112.5C 44.917,109.636 48.7503,105.303 51,99.5C 51.3826,100.056 51.8826,100.389 52.5,100.5 Z"/></g>
<g><path style="opacity:1" fill="#535353" d="M 197.5,116.5 C 195.143,116.337 192.81,116.503 190.5,117C 189.944,117.383 189.611,117.883 189.5,118.5C 187.967,116.645 186.3,114.812 184.5,113C 185.167,112.667 185.833,112.333 186.5,112C 185.448,110.881 184.281,110.381 183,110.5C 181.642,108.141 180.642,105.807 180,103.5C 183.158,105.957 185.991,108.79 188.5,112C 191.859,113.047 194.859,114.547 197.5,116.5 Z"/></g>
<g><path style="opacity:1" fill="#a5a3a4" d="M 163.5,111.5 C 163.954,113.259 163.954,115.259 163.5,117.5C 163.631,118.239 163.464,118.906 163,119.5C 162.306,118.182 161.473,117.349 160.5,117C 161.14,114.88 162.14,113.046 163.5,111.5 Z"/></g>
<g><path style="opacity:1" fill="#a7a5a6" d="M 180.5,117.5 C 178.994,123.19 175.994,127.857 171.5,131.5C 170.127,131.657 168.793,131.49 167.5,131C 168.801,129.384 168.801,127.884 167.5,126.5C 167.239,123.085 166.072,123.085 164,126.5C 163.329,125.748 162.496,125.414 161.5,125.5C 161.5,124.833 161.833,124.5 162.5,124.5C 164.651,122.85 166.651,121.017 168.5,119C 169.877,115.033 171.544,111.2 173.5,107.5C 175.797,110.807 178.13,114.14 180.5,117.5 Z"/></g>
<g><path style="opacity:1" fill="#282828" d="M 74.5,79.5 C 74.5,82.5 74.5,85.5 74.5,88.5C 72.5026,90.513 70.836,92.8463 69.5,95.5C 70.0016,96.521 70.6683,96.6877 71.5,96C 72.3994,94.3484 73.3994,92.8484 74.5,91.5C 75.609,91.5569 76.609,91.8902 77.5,92.5C 77.4346,92.9382 77.6012,93.2716 78,93.5C 80.3143,92.2668 82.4809,90.9334 84.5,89.5C 85.1667,89.5 85.8333,89.5 86.5,89.5C 89.4299,88.701 92.4299,88.3677 95.5,88.5C 96.3382,88.8417 96.6716,89.5084 96.5,90.5C 96.6107,91.1174 96.944,91.6174 97.5,92C 92.6589,92.9953 87.9922,94.162 83.5,95.5C 81.2495,95.1814 79.2495,95.6814 77.5,97C 78.5822,98.3297 79.2488,99.8297 79.5,101.5C 77.8523,100.19 76.1856,98.8569 74.5,97.5C 73.7025,97.9569 73.3691,98.6236 73.5,99.5C 71.321,99.84 69.4877,100.84 68,102.5C 67.3333,106.833 67.3333,111.167 68,115.5C 68.2784,116.416 68.7784,117.082 69.5,117.5C 69.6107,118.117 69.944,118.617 70.5,119C 69.0494,118.737 67.7161,118.904 66.5,119.5C 66.9943,121.026 67.661,122.359 68.5,123.5C 68.5,123.833 68.5,124.167 68.5,124.5C 68.5,124.833 68.5,125.167 68.5,125.5C 67.5041,125.586 66.6708,125.252 66,124.5C 65.1519,122.126 63.8186,120.126 62,118.5C 61.5,118.833 61,119.167 60.5,119.5C 61.7878,121.739 62.7878,124.072 63.5,126.5C 61.7263,125.63 60.393,124.297 59.5,122.5C 58.032,122.694 57.3653,124.028 57.5,126.5C 56.4749,125.626 55.8082,124.459 55.5,123C 56.3632,120.773 57.3632,118.607 58.5,116.5C 57.1972,114.522 55.5306,114.522 53.5,116.5C 52.0339,120.341 50.0339,123.674 47.5,126.5C 44.9902,126.927 42.6568,127.593 40.5,128.5C 40.1667,128.5 39.8333,128.5 39.5,128.5C 39.178,126.278 39.8446,124.444 41.5,123C 38.854,122.503 36.1873,122.336 33.5,122.5C 32.5084,122.672 31.8417,122.338 31.5,121.5C 28.9125,119.08 26.9125,116.246 25.5,113C 26.0944,112.536 26.7611,112.369 27.5,112.5C 29.8109,114.068 32.4776,114.902 35.5,115C 33.5,115.333 31.5,115.667 29.5,116C 32.9283,116.701 36.2617,116.368 39.5,115C 45.8422,111.832 50.1755,106.999 52.5,100.5C 53.072,99.0267 53.9054,97.6934 55,96.5C 55.0102,103.31 52.1769,108.81 46.5,113C 47.1667,113.667 47.8333,113.667 48.5,113C 55.5333,106.766 59.2,98.9323 59.5,89.5C 60.3227,92.977 60.8227,96.6437 61,100.5C 61.2401,98.1484 62.0735,96.1484 63.5,94.5C 63.5793,97.2706 63.0793,99.9373 62,102.5C 61,102.833 60,103.167 59,103.5C 59.1484,104.825 58.9817,105.992 58.5,107C 59.4491,107.617 60.2825,107.451 61,106.5C 62.1395,110.112 63.8061,113.446 66,116.5C 65.2381,112.638 64.0714,108.804 62.5,105C 64.019,103.649 65.3523,102.149 66.5,100.5C 65.5585,100.511 64.8919,100.011 64.5,99C 65.9179,93.3373 68.2512,88.1707 71.5,83.5C 71.7086,84.9217 72.2086,86.255 73,87.5C 73.1829,84.6353 73.6829,81.9686 74.5,79.5 Z"/></g>
<g><path style="opacity:1" fill="#959492" d="M 74.5,88.5 C 74.5,89.5 74.5,90.5 74.5,91.5C 73.3994,92.8484 72.3994,94.3484 71.5,96C 70.6683,96.6877 70.0016,96.521 69.5,95.5C 70.836,92.8463 72.5026,90.513 74.5,88.5 Z"/></g>
<g><path style="opacity:1" fill="#202020" d="M 68.5,125.5 C 69.0081,128.176 69.1747,130.843 69,133.5C 67.3029,130.98 65.4695,128.647 63.5,126.5C 62.7878,124.072 61.7878,121.739 60.5,119.5C 61,119.167 61.5,118.833 62,118.5C 63.8186,120.126 65.1519,122.126 66,124.5C 66.6708,125.252 67.5041,125.586 68.5,125.5 Z"/></g>
<g><path style="opacity:1" fill="#a9a9a9" d="M 184.5,152.5 C 184.5,152.167 184.5,151.833 184.5,151.5C 186.527,151.662 188.527,151.495 190.5,151C 183.249,148.724 180.749,143.89 183,136.5C 183.815,134.377 184.815,132.377 186,130.5C 186.333,132.167 186.667,133.833 187,135.5C 187.679,132.45 188.512,129.45 189.5,126.5C 188.864,124.22 187.864,122.22 186.5,120.5C 187.648,119.836 188.981,119.669 190.5,120C 189.944,119.617 189.611,119.117 189.5,118.5C 189.611,117.883 189.944,117.383 190.5,117C 192.81,116.503 195.143,116.337 197.5,116.5C 199.415,116.784 201.081,116.451 202.5,115.5C 205.889,115.368 209.223,115.201 212.5,115C 206.839,118.399 200.839,119.232 194.5,117.5C 193.17,119.347 193.503,120.847 195.5,122C 198.572,122.456 201.572,122.456 204.5,122C 199.764,124.984 194.93,125.151 190,122.5C 192.022,127.189 195.522,130.689 200.5,133C 196.525,133.369 193.358,131.869 191,128.5C 189.599,134.049 187.433,139.216 184.5,144C 186.875,147.588 190.208,149.921 194.5,151C 191.999,152.418 192.332,153.418 195.5,154C 191.638,154.758 187.972,154.258 184.5,152.5 Z"/></g>
<g><path style="opacity:1" fill="#a8a8a8" d="M 33.5,122.5 C 36.1873,122.336 38.854,122.503 41.5,123C 39.8446,124.444 39.178,126.278 39.5,128.5C 35.6837,127.38 32.0171,127.38 28.5,128.5C 26.7446,127.928 25.0779,127.094 23.5,126C 22.5494,125.282 22.3828,124.449 23,123.5C 27.4404,126.497 32.2737,127.163 37.5,125.5C 36.3757,124.141 35.0423,123.141 33.5,122.5 Z"/></g>
<g><path style="opacity:1" fill="#50504e" d="M 57.5,126.5 C 57.3367,128.857 57.5034,131.19 58,133.5C 58.3826,134.056 58.8826,134.389 59.5,134.5C 59.1583,135.338 58.4916,135.672 57.5,135.5C 56.0927,133.692 54.926,131.692 54,129.5C 53.79,131.058 53.29,132.391 52.5,133.5C 52.5,132.833 52.5,132.167 52.5,131.5C 52.5875,128.402 52.0875,128.068 51,130.5C 50.5017,128.456 49.335,127.122 47.5,126.5C 50.0339,123.674 52.0339,120.341 53.5,116.5C 55.5306,114.522 57.1972,114.522 58.5,116.5C 57.3632,118.607 56.3632,120.773 55.5,123C 55.8082,124.459 56.4749,125.626 57.5,126.5 Z"/></g>
<g><path style="opacity:1" fill="#f5f5f5" d="M 28.5,128.5 C 32.0171,127.38 35.6837,127.38 39.5,128.5C 39.8333,128.5 40.1667,128.5 40.5,128.5C 41.552,128.351 42.552,128.517 43.5,129C 38.4808,130.788 33.4808,130.621 28.5,128.5 Z"/></g>
<g><path style="opacity:1" fill="#adadad" d="M 114.5,124.5 C 124.422,127.129 124.922,131.129 116,136.5C 111.606,136.084 108.772,133.918 107.5,130C 107.559,128.564 107.892,127.231 108.5,126C 110.708,125.809 112.708,125.309 114.5,124.5 Z"/></g>
<g><path style="opacity:1" fill="#b4b4b4" d="M 47.5,126.5 C 49.335,127.122 50.5017,128.456 51,130.5C 52.0875,128.068 52.5875,128.402 52.5,131.5C 50.3445,134.437 48.8445,137.771 48,141.5C 47.8078,139.423 47.3078,137.423 46.5,135.5C 43.1736,138.666 39.5069,139.166 35.5,137C 37.8739,137.402 40.2072,137.236 42.5,136.5C 43.6667,134.833 44.8333,133.167 46,131.5C 46.3333,132.167 46.6667,132.833 47,133.5C 48.4404,132.07 48.7737,130.403 48,128.5C 47.6827,130.301 47.016,130.634 46,129.5C 40.6459,131.924 35.1459,132.091 29.5,130C 28.944,129.617 28.6107,129.117 28.5,128.5C 33.4808,130.621 38.4808,130.788 43.5,129C 42.552,128.517 41.552,128.351 40.5,128.5C 42.6568,127.593 44.9902,126.927 47.5,126.5 Z"/></g>
<g><path style="opacity:1" fill="#ebebeb" d="M 59.5,122.5 C 59.8706,126.649 60.8706,130.649 62.5,134.5C 61.5754,135.562 60.5754,135.562 59.5,134.5C 58.8826,134.389 58.3826,134.056 58,133.5C 57.5034,131.19 57.3367,128.857 57.5,126.5C 57.3653,124.028 58.032,122.694 59.5,122.5 Z"/></g>
<g><path style="opacity:1" fill="#646464" d="M 167.5,126.5 C 168.801,127.884 168.801,129.384 167.5,131C 168.793,131.49 170.127,131.657 171.5,131.5C 170.365,133.213 168.698,133.88 166.5,133.5C 166.567,135.401 166.233,137.234 165.5,139C 165.836,140.03 166.503,140.53 167.5,140.5C 166.791,141.404 165.791,141.737 164.5,141.5C 165.025,136.4 166.025,131.4 167.5,126.5 Z"/></g>
<g><path style="opacity:1" fill="#e1e1e1" d="M 180.5,117.5 C 182.213,118.635 182.88,120.302 182.5,122.5C 178.947,129.718 173.947,135.718 167.5,140.5C 166.503,140.53 165.836,140.03 165.5,139C 166.233,137.234 166.567,135.401 166.5,133.5C 168.698,133.88 170.365,133.213 171.5,131.5C 175.994,127.857 178.994,123.19 180.5,117.5 Z"/></g>
<g><path style="opacity:1" fill="#9e9e9e" d="M 59.5,122.5 C 60.393,124.297 61.7263,125.63 63.5,126.5C 65.4695,128.647 67.3029,130.98 69,133.5C 69.1747,130.843 69.0081,128.176 68.5,125.5C 68.5,125.167 68.5,124.833 68.5,124.5C 70.621,126.734 73.2877,128.234 76.5,129C 74.5594,129.743 72.7261,129.576 71,128.5C 70.8333,129.5 70.6667,130.5 70.5,131.5C 70.6639,138.031 72.3306,144.364 75.5,150.5C 74.0387,151.686 72.7054,151.686 71.5,150.5C 72.4972,150.53 73.1639,150.03 73.5,149C 73.1377,147.775 72.6377,146.609 72,145.5C 68.5,143.333 65.6667,140.5 63.5,137C 62.0563,136.219 60.723,136.386 59.5,137.5C 60.4565,139.075 61.1231,140.742 61.5,142.5C 61.5881,148.577 63.9215,153.577 68.5,157.5C 66.629,157.141 65.129,156.141 64,154.5C 63.7351,156.163 64.2351,157.663 65.5,159C 63.1589,159.168 61.8256,158.001 61.5,155.5C 61.8158,152.022 61.3158,148.688 60,145.5C 59.5065,147.134 59.3398,148.801 59.5,150.5C 60.0703,145.53 59.4036,140.53 57.5,135.5C 58.4916,135.672 59.1583,135.338 59.5,134.5C 60.5754,135.562 61.5754,135.562 62.5,134.5C 60.8706,130.649 59.8706,126.649 59.5,122.5 Z"/></g>
<g><path style="opacity:1" fill="#cdcdcd" d="M 167.5,126.5 C 166.025,131.4 165.025,136.4 164.5,141.5C 162.462,145.94 160.796,150.607 159.5,155.5C 155.283,162.059 150.283,168.059 144.5,173.5C 143.167,174.5 141.833,175.5 140.5,176.5C 145.857,168.487 152.024,160.154 159,151.5C 161.216,146.02 162.716,140.354 163.5,134.5C 162.644,131.72 161.311,129.22 159.5,127C 160.044,126.283 160.711,125.783 161.5,125.5C 162.496,125.414 163.329,125.748 164,126.5C 166.072,123.085 167.239,123.085 167.5,126.5 Z"/></g>
<g><path style="opacity:1" fill="#d6d6d6" d="M 57.5,135.5 C 59.4036,140.53 60.0703,145.53 59.5,150.5C 59.4326,151.959 59.7659,153.292 60.5,154.5C 59.1411,153.993 58.1411,152.993 57.5,151.5C 55.8333,152.167 54.1667,152.833 52.5,153.5C 50.8849,152.846 49.2182,152.346 47.5,152C 50.1547,151.273 52.4881,150.106 54.5,148.5C 51.7571,143.72 51.0904,138.72 52.5,133.5C 53.29,132.391 53.79,131.058 54,129.5C 54.926,131.692 56.0927,133.692 57.5,135.5 Z"/></g>
<g><path style="opacity:1" fill="#a8a8a8" d="M 135.5,150.5 C 134.521,148.01 133.354,148.01 132,150.5C 131.235,150.43 130.735,150.097 130.5,149.5C 131.239,149.631 131.906,149.464 132.5,149C 130.685,148.243 129.019,147.41 127.5,146.5C 125.696,145.838 123.696,145.505 121.5,145.5C 118.186,145.343 115.186,146.009 112.5,147.5C 109.487,148.513 107.487,150.513 106.5,153.5C 105.042,151.145 103.708,151.478 102.5,154.5C 100.775,154.157 100.275,153.157 101,151.5C 112.218,142.089 124.385,140.589 137.5,147C 138.537,148.851 137.87,150.017 135.5,150.5 Z"/></g>
<g><path style="opacity:1" fill="#f5f5f5" d="M 71.5,150.5 C 67.8781,148.213 64.5448,145.547 61.5,142.5C 61.1231,140.742 60.4565,139.075 59.5,137.5C 60.723,136.386 62.0563,136.219 63.5,137C 65.6667,140.5 68.5,143.333 72,145.5C 72.6377,146.609 73.1377,147.775 73.5,149C 73.1639,150.03 72.4972,150.53 71.5,150.5 Z"/></g>
<g><path style="opacity:1" fill="#3e3e3e" d="M 127.5,146.5 C 122.463,146.413 117.463,146.746 112.5,147.5C 115.186,146.009 118.186,145.343 121.5,145.5C 123.696,145.505 125.696,145.838 127.5,146.5 Z"/></g>
<g><path style="opacity:1" fill="#ededed" d="M 127.5,146.5 C 129.019,147.41 130.685,148.243 132.5,149C 131.906,149.464 131.239,149.631 130.5,149.5C 126.131,149.467 121.798,149.8 117.5,150.5C 115.901,150.232 114.568,150.566 113.5,151.5C 110.812,151.166 108.479,151.832 106.5,153.5C 107.487,150.513 109.487,148.513 112.5,147.5C 117.463,146.746 122.463,146.413 127.5,146.5 Z"/></g>
<g><path style="opacity:1" fill="#232323" d="M 61.5,155.5 C 60.8333,155.5 60.5,155.167 60.5,154.5C 59.7659,153.292 59.4326,151.959 59.5,150.5C 59.3398,148.801 59.5065,147.134 60,145.5C 61.3158,148.688 61.8158,152.022 61.5,155.5 Z"/></g>
<g><path style="opacity:1" fill="#2e2e2e" d="M 135.5,150.5 C 132.957,152.94 129.957,154.606 126.5,155.5C 127.749,153.864 129.416,152.697 131.5,152C 126.649,151.826 121.982,151.326 117.5,150.5C 121.798,149.8 126.131,149.467 130.5,149.5C 130.735,150.097 131.235,150.43 132,150.5C 133.354,148.01 134.521,148.01 135.5,150.5 Z"/></g>
<g><path style="opacity:1" fill="#888888" d="M 113.5,151.5 C 114.568,150.566 115.901,150.232 117.5,150.5C 121.982,151.326 126.649,151.826 131.5,152C 129.416,152.697 127.749,153.864 126.5,155.5C 122.928,156.903 119.095,157.569 115,157.5C 112.639,157.496 110.473,157.163 108.5,156.5C 108.414,155.504 108.748,154.671 109.5,154C 111.608,153.64 113.608,152.973 115.5,152C 114.906,151.536 114.239,151.369 113.5,151.5 Z"/></g>
<g><path style="opacity:1" fill="#1c1c1c" d="M 106.5,153.5 C 108.479,151.832 110.812,151.166 113.5,151.5C 114.239,151.369 114.906,151.536 115.5,152C 113.608,152.973 111.608,153.64 109.5,154C 108.748,154.671 108.414,155.504 108.5,156.5C 106.297,156.396 104.297,155.73 102.5,154.5C 103.708,151.478 105.042,151.145 106.5,153.5 Z"/></g>
<g><path style="opacity:1" fill="#1e1e1d" d="M 186.5,120.5 C 187.864,122.22 188.864,124.22 189.5,126.5C 188.512,129.45 187.679,132.45 187,135.5C 186.667,133.833 186.333,132.167 186,130.5C 184.815,132.377 183.815,134.377 183,136.5C 180.749,143.89 183.249,148.724 190.5,151C 188.527,151.495 186.527,151.662 184.5,151.5C 181.115,149.091 178.949,145.757 178,141.5C 177.667,142.5 177.333,143.5 177,144.5C 176.667,142.5 176.333,140.5 176,138.5C 175.503,140.81 175.337,143.143 175.5,145.5C 174.5,145.5 173.5,145.5 172.5,145.5C 173.167,147.5 173.833,149.5 174.5,151.5C 172.097,151.393 170.264,152.393 169,154.5C 168.257,152.355 167.424,152.189 166.5,154C 166.911,155.144 167.244,156.311 167.5,157.5C 166.359,160.755 165.526,164.089 165,167.5C 164.667,167.167 164.333,166.833 164,166.5C 162.582,169.001 161.582,168.668 161,165.5C 160.238,169.332 160.738,172.998 162.5,176.5C 162.023,177.478 161.357,178.311 160.5,179C 163.051,180.516 162.718,181.349 159.5,181.5C 158.596,180.791 158.263,179.791 158.5,178.5C 158.5,177.167 158.5,175.833 158.5,174.5C 159.315,169.332 159.981,163.999 160.5,158.5C 160.48,157.274 160.147,156.274 159.5,155.5C 160.796,150.607 162.462,145.94 164.5,141.5C 165.791,141.737 166.791,141.404 167.5,140.5C 173.947,135.718 178.947,129.718 182.5,122.5C 184.483,122.843 185.817,122.176 186.5,120.5 Z"/></g>
<g><path style="opacity:1" fill="#b7b7b7" d="M 79.5,158.5 C 82.9313,160.095 85.598,162.595 87.5,166C 88.448,166.483 89.448,166.649 90.5,166.5C 90.5,167.5 90.5,168.5 90.5,169.5C 90.1667,169.5 89.8333,169.5 89.5,169.5C 85.9426,166.064 82.6092,162.397 79.5,158.5 Z"/></g>
<g><path style="opacity:1" fill="#9e9e9e" d="M 117.5,163.5 C 120.167,163.5 122.833,163.5 125.5,163.5C 125.424,167.641 123.257,169.308 119,168.5C 112.81,167.534 112.31,165.867 117.5,163.5 Z"/></g>
<g><path style="opacity:1" fill="#b7b7b7" d="M 173.5,161.5 C 171.261,166.253 170.928,171.253 172.5,176.5C 171.034,175.653 170.2,174.32 170,172.5C 169.001,166.981 169.501,161.647 171.5,156.5C 171.833,156.167 172.167,155.833 172.5,155.5C 173.466,157.396 173.799,159.396 173.5,161.5 Z"/></g>
<g><path style="opacity:1" fill="#2b2b2b" d="M 184.5,151.5 C 184.5,151.833 184.5,152.167 184.5,152.5C 183.391,152.443 182.391,152.11 181.5,151.5C 180.828,150.733 179.995,150.066 179,149.5C 175.848,154.133 174.014,159.133 173.5,164.5C 173.5,163.5 173.5,162.5 173.5,161.5C 173.799,159.396 173.466,157.396 172.5,155.5C 172.167,155.833 171.833,156.167 171.5,156.5C 169.501,161.647 169.001,166.981 170,172.5C 170.2,174.32 171.034,175.653 172.5,176.5C 172.5,177.167 172.5,177.833 172.5,178.5C 173.116,179.798 173.116,180.798 172.5,181.5C 169.547,179.931 167.38,177.598 166,174.5C 164.797,179.951 166.631,183.784 171.5,186C 169.82,186.034 168.32,186.201 167,186.5C 164.928,183.085 163.761,183.085 163.5,186.5C 162.883,186.389 162.383,186.056 162,185.5C 161.211,187.712 161.378,189.712 162.5,191.5C 162.649,192.552 162.483,193.552 162,194.5C 161.209,193.255 160.709,191.922 160.5,190.5C 160.037,187.518 159.704,184.518 159.5,181.5C 162.718,181.349 163.051,180.516 160.5,179C 161.357,178.311 162.023,177.478 162.5,176.5C 160.738,172.998 160.238,169.332 161,165.5C 161.582,168.668 162.582,169.001 164,166.5C 164.333,166.833 164.667,167.167 165,167.5C 165.526,164.089 166.359,160.755 167.5,157.5C 167.244,156.311 166.911,155.144 166.5,154C 167.424,152.189 168.257,152.355 169,154.5C 170.264,152.393 172.097,151.393 174.5,151.5C 173.833,149.5 173.167,147.5 172.5,145.5C 173.5,145.5 174.5,145.5 175.5,145.5C 175.337,143.143 175.503,140.81 176,138.5C 176.333,140.5 176.667,142.5 177,144.5C 177.333,143.5 177.667,142.5 178,141.5C 178.949,145.757 181.115,149.091 184.5,151.5 Z"/></g>
<g><path style="opacity:1" fill="#232323" d="M 61.5,142.5 C 64.5448,145.547 67.8781,148.213 71.5,150.5C 72.7054,151.686 74.0387,151.686 75.5,150.5C 77.2672,152.938 78.6006,155.605 79.5,158.5C 82.6092,162.397 85.9426,166.064 89.5,169.5C 89.0183,170.416 88.685,171.416 88.5,172.5C 91.0353,179.823 91.0353,187.157 88.5,194.5C 88.0237,196.066 87.357,196.4 86.5,195.5C 87.4066,192.579 87.7399,189.579 87.5,186.5C 87.477,184.073 86.977,181.74 86,179.5C 85.2828,180.044 84.7828,180.711 84.5,181.5C 83.0351,182.737 81.3684,183.737 79.5,184.5C 80.1667,182.833 80.8333,181.167 81.5,179.5C 82.6433,176.024 82.8099,172.358 82,168.5C 81.7679,169.737 81.2679,170.737 80.5,171.5C 80.6621,169.473 80.4955,167.473 80,165.5C 79.6174,164.944 79.1174,164.611 78.5,164.5C 78.2914,163.078 77.7914,161.745 77,160.5C 76.5026,163.146 76.3359,165.813 76.5,168.5C 75.5028,168.53 74.8361,168.03 74.5,167C 73.9221,165.189 73.4221,163.355 73,161.5C 72.5357,162.094 72.369,162.761 72.5,163.5C 71.1798,161.537 69.8465,159.537 68.5,157.5C 63.9215,153.577 61.5881,148.577 61.5,142.5 Z"/></g>
<g><path style="opacity:1" fill="#b6b6b6" d="M 181.5,151.5 C 179.554,153.353 178.054,155.686 177,158.5C 176.566,162.548 176.566,166.548 177,170.5C 175.053,168.937 173.886,166.937 173.5,164.5C 174.014,159.133 175.848,154.133 179,149.5C 179.995,150.066 180.828,150.733 181.5,151.5 Z"/></g>
<g><path style="opacity:1" fill="#b5b5b5" d="M 78.5,164.5 C 79.1174,164.611 79.6174,164.944 80,165.5C 80.4955,167.473 80.6621,169.473 80.5,171.5C 79.6765,173.455 79.5099,175.455 80,177.5C 80.3333,176.833 80.6667,176.167 81,175.5C 81.49,176.793 81.6567,178.127 81.5,179.5C 80.8333,181.167 80.1667,182.833 79.5,184.5C 76.7389,187.136 73.4056,187.969 69.5,187C 74.1972,186.943 77.0305,184.776 78,180.5C 75.2739,182.964 72.1072,183.797 68.5,183C 71.8732,182.899 74.3732,181.399 76,178.5C 77.7962,174.018 78.6296,169.351 78.5,164.5 Z"/></g>
<g><path style="opacity:1" fill="#b9b9b9" d="M 76.5,168.5 C 75.7862,171.593 74.2862,174.26 72,176.5C 69.695,176.421 67.195,176.254 64.5,176C 70.5451,174.066 73.2118,169.899 72.5,163.5C 72.369,162.761 72.5357,162.094 73,161.5C 73.4221,163.355 73.9221,165.189 74.5,167C 74.8361,168.03 75.5028,168.53 76.5,168.5 Z"/></g>
<g><path style="opacity:1" fill="#6e6e6e" d="M 81.5,179.5 C 81.6567,178.127 81.49,176.793 81,175.5C 80.6667,176.167 80.3333,176.833 80,177.5C 79.5099,175.455 79.6765,173.455 80.5,171.5C 81.2679,170.737 81.7679,169.737 82,168.5C 82.8099,172.358 82.6433,176.024 81.5,179.5 Z"/></g>
<g><path style="opacity:1" fill="#b4b4b4" d="M 172.5,178.5 C 175.356,181.097 178.689,182.93 182.5,184C 178.79,184.406 175.456,183.572 172.5,181.5C 173.116,180.798 173.116,179.798 172.5,178.5 Z"/></g>
<g><path style="opacity:1" fill="#8a8a8a" d="M 87.5,186.5 C 86.1021,188.109 84.4354,188.942 82.5,189C 84.6587,186.625 85.3253,184.125 84.5,181.5C 84.7828,180.711 85.2828,180.044 86,179.5C 86.977,181.74 87.477,184.073 87.5,186.5 Z"/></g>
<g><path style="opacity:1" fill="#787878" d="M 158.5,178.5 C 158.263,179.791 158.596,180.791 159.5,181.5C 159.704,184.518 160.037,187.518 160.5,190.5C 159.778,190.082 159.278,189.416 159,188.5C 157.888,192.981 158.721,196.981 161.5,200.5C 161.5,201.167 161.167,201.5 160.5,201.5C 160.565,201.062 160.399,200.728 160,200.5C 159.026,202.878 158.359,202.544 158,199.5C 157.502,196.183 157.335,192.85 157.5,189.5C 157.185,185.629 157.518,181.962 158.5,178.5 Z"/></g>
<g><path style="opacity:1" fill="#ababab" d="M 163.5,186.5 C 164.134,189.643 165.8,192.143 168.5,194C 166.255,193.805 164.422,192.638 163,190.5C 162.601,190.728 162.435,191.062 162.5,191.5C 161.378,189.712 161.211,187.712 162,185.5C 162.383,186.056 162.883,186.389 163.5,186.5 Z"/></g>
<g><path style="opacity:1" fill="#8f8f8f" d="M 159.5,155.5 C 160.147,156.274 160.48,157.274 160.5,158.5C 159.981,163.999 159.315,169.332 158.5,174.5C 154.593,176.57 151.427,179.57 149,183.5C 145.478,191.22 141.478,198.553 137,205.5C 136.667,204.833 136.333,204.167 136,203.5C 132.286,205.58 128.453,205.913 124.5,204.5C 123.391,204.443 122.391,204.11 121.5,203.5C 122.356,200.8 123.856,198.466 126,196.5C 126.684,195.216 126.517,194.049 125.5,193C 123.833,192.167 122.167,191.333 120.5,190.5C 119.5,191.833 118.5,191.833 117.5,190.5C 117.167,191.167 116.833,191.833 116.5,192.5C 114.833,191.667 113.167,190.833 111.5,190C 113.901,189.195 113.734,188.362 111,187.5C 109.612,188.554 108.112,188.72 106.5,188C 107.34,186.334 106.84,186.167 105,187.5C 104.309,185.109 103.309,185.109 102,187.5C 101.184,186.177 100.017,185.511 98.5,185.5C 96.9337,182.588 94.9337,179.921 92.5,177.5C 92.182,187.807 92.0153,198.14 92,208.5C 91.0138,207.829 89.8471,207.829 88.5,208.5C 91.4487,204.372 92.2821,199.705 91,194.5C 90.2303,193.402 89.397,193.402 88.5,194.5C 91.0353,187.157 91.0353,179.823 88.5,172.5C 88.685,171.416 89.0183,170.416 89.5,169.5C 89.8333,169.5 90.1667,169.5 90.5,169.5C 97.8033,177.484 106.47,183.484 116.5,187.5C 120.312,188.324 124.312,188.824 128.5,189C 131.812,191.678 134.979,191.178 138,187.5C 139.921,182.661 142.088,177.994 144.5,173.5C 150.283,168.059 155.283,162.059 159.5,155.5 Z"/></g>
<g><path style="opacity:1" fill="#afafaf" d="M 98.5,185.5 C 100.017,185.511 101.184,186.177 102,187.5C 103.309,185.109 104.309,185.109 105,187.5C 106.84,186.167 107.34,186.334 106.5,188C 108.112,188.72 109.612,188.554 111,187.5C 113.734,188.362 113.901,189.195 111.5,190C 113.167,190.833 114.833,191.667 116.5,192.5C 116.833,191.833 117.167,191.167 117.5,190.5C 118.5,191.833 119.5,191.833 120.5,190.5C 122.167,191.333 123.833,192.167 125.5,193C 126.517,194.049 126.684,195.216 126,196.5C 123.856,198.466 122.356,200.8 121.5,203.5C 118.528,201.678 115.528,199.844 112.5,198C 108.262,193.257 103.596,189.091 98.5,185.5 Z"/></g>
<g><path style="opacity:1" fill="#6c6c6c" d="M 144.5,173.5 C 142.088,177.994 139.921,182.661 138,187.5C 134.979,191.178 131.812,191.678 128.5,189C 124.312,188.824 120.312,188.324 116.5,187.5C 120.273,187.737 123.94,187.237 127.5,186C 131.508,182.335 135.841,179.168 140.5,176.5C 141.833,175.5 143.167,174.5 144.5,173.5 Z"/></g>
<g><path style="opacity:1" fill="#c5c2c3" d="M 158.5,174.5 C 158.5,175.833 158.5,177.167 158.5,178.5C 157.518,181.962 157.185,185.629 157.5,189.5C 155.76,191.974 154.26,194.641 153,197.5C 150.79,206.016 148.123,214.349 145,222.5C 145,220.5 145,218.5 145,216.5C 144.255,215.01 143.088,214.01 141.5,213.5C 137.176,215.491 133.01,217.824 129,220.5C 128.333,217.833 127.667,217.833 127,220.5C 125.446,216.698 125.28,212.865 126.5,209C 125.586,207.594 124.92,206.094 124.5,204.5C 128.453,205.913 132.286,205.58 136,203.5C 136.333,204.167 136.667,204.833 137,205.5C 141.478,198.553 145.478,191.22 149,183.5C 151.427,179.57 154.593,176.57 158.5,174.5 Z"/></g>
<g><path style="opacity:1" fill="#c7c7c7" d="M 161.5,200.5 C 165.908,203.702 170.575,206.368 175.5,208.5C 179.586,209.363 180.086,211.029 177,213.5C 176.586,213.043 176.086,212.709 175.5,212.5C 174.678,214.139 174.011,215.805 173.5,217.5C 172.077,219.711 170.077,220.545 167.5,220C 169.942,218.319 171.275,216.319 171.5,214C 168.567,211.474 166.067,208.64 164,205.5C 163.667,206.167 163.333,206.833 163,207.5C 161.878,205.593 161.045,203.593 160.5,201.5C 161.167,201.5 161.5,201.167 161.5,200.5 Z"/></g>
<g><path style="opacity:1" fill="#989898" d="M 196.5,210.5 C 193.656,209.942 190.822,209.275 188,208.5C 186.566,208.862 185.399,209.528 184.5,210.5C 183.749,209.427 182.749,209.26 181.5,210C 182.056,210.383 182.389,210.883 182.5,211.5C 180.049,214.277 177.049,216.277 173.5,217.5C 174.011,215.805 174.678,214.139 175.5,212.5C 176.086,212.709 176.586,213.043 177,213.5C 180.086,211.029 179.586,209.363 175.5,208.5C 182.867,205.777 189.867,206.444 196.5,210.5 Z"/></g>
<g><path style="opacity:1" fill="#949494" d="M 88.5,208.5 C 87.089,210.539 85.089,211.539 82.5,211.5C 82.9052,213.65 83.4052,215.65 84,217.5C 81.6078,214.532 79.1078,211.699 76.5,209C 78.8183,208.658 80.985,209.158 83,210.5C 84.7255,209.536 86.5588,208.869 88.5,208.5 Z"/></g>
<g><path style="opacity:1" fill="#171717" d="M 184.5,210.5 C 183.833,210.833 183.167,211.167 182.5,211.5C 182.389,210.883 182.056,210.383 181.5,210C 182.749,209.26 183.749,209.427 184.5,210.5 Z"/></g>
<g><path style="opacity:1" fill="#5d5d5d" d="M 196.5,210.5 C 198.553,210.402 200.22,211.069 201.5,212.5C 199.447,212.598 197.78,211.931 196.5,210.5 Z"/></g>
<g><path style="opacity:1" fill="#969696" d="M 201.5,212.5 C 206.321,213.039 210.988,214.205 215.5,216C 210.554,215.763 205.887,214.597 201.5,212.5 Z"/></g>
<g><path style="opacity:1" fill="#c6c6c6" d="M 67.5,212.5 C 69.3786,212.393 69.7119,212.893 68.5,214C 56.3553,217.392 44.022,219.392 31.5,220C 41.1106,218.009 50.7773,216.343 60.5,215C 63.1042,214.61 65.4375,213.776 67.5,212.5 Z"/></g>
</svg>
